<svg width="25" height="24" viewBox="0 0 25 24" fill="none" xmlns="http://www.w3.org/2000/svg">
<path d="M21.3149 4.9999L3.31486 4.9999C3.13261 5.00047 2.95398 5.05073 2.79818 5.14527C2.64238 5.23982 2.51531 5.37506 2.43066 5.53645C2.34601 5.69783 2.30697 5.87926 2.31775 6.06118C2.32854 6.2431 2.38873 6.41864 2.49186 6.5689L11.4919 19.5689C11.8649 20.1079 12.7629 20.1079 13.1369 19.5689L22.1369 6.5689C22.241 6.41895 22.3021 6.24333 22.3135 6.0611C22.3249 5.87887 22.2861 5.69702 22.2013 5.53529C22.1166 5.37356 21.9892 5.23814 21.8329 5.14375C21.6766 5.04936 21.4974 4.99961 21.3149 4.9999Z" fill="white"/>
</svg>
